<svg aria-hidden="true" style="position: absolute; width: 0; height: 0; overflow: hidden;" version="1.1" xmlns="http://www.w3.org/2000/svg" xmlns:xlink="http://www.w3.org/1999/xlink">
<defs>
<symbol id="icon-back" viewBox="0 0 32 32">
<title>icon-back</title>
<path d="M3.573 14.333h27.333v3.333h-27.333v-3.333z"></path>
<path d="M9.577 24.483l-8.485-8.485 2.357-2.357 8.485 8.485-2.357 2.357z"></path>
<path d="M1.090 15.997l8.485-8.485 2.357 2.357-8.485 8.485-2.357-2.357z"></path>
</symbol>
<symbol id="icon-plus" viewBox="0 0 32 32">
<title>icon-plus</title>
<path d="M16 0.387c2.813 0 5.413 0.7 7.807 2.107s4.293 3.307 5.7 5.7c1.407 2.393 2.107 4.993 2.107 7.807s-0.707 5.413-2.107 7.807c-1.407 2.393-3.307 4.293-5.7 5.7s-4.993 2.107-7.807 2.107c-2.813 0-5.413-0.7-7.807-2.107s-4.293-3.307-5.693-5.7c-1.407-2.393-2.113-4.993-2.113-7.807s0.7-5.413 2.107-7.807c1.407-2.393 3.307-4.293 5.7-5.693 2.393-1.407 4.993-2.113 7.807-2.113zM16 3.407c-2.267 0-4.367 0.567-6.293 1.7-1.933 1.133-3.46 2.667-4.593 4.593-1.133 1.933-1.7 4.027-1.7 6.293s0.567 4.367 1.7 6.293c1.133 1.933 2.667 3.46 4.593 4.593 1.933 1.133 4.027 1.7 6.293 1.7s4.367-0.567 6.293-1.7c1.933-1.133 3.46-2.667 4.593-4.593 1.133-1.933 1.7-4.027 1.7-6.293s-0.567-4.367-1.7-6.293c-1.133-1.933-2.667-3.46-4.593-4.593s-4.027-1.7-6.293-1.7z"></path>
<path d="M23.487 16.933c0 0.193-0.067 0.36-0.207 0.5s-0.3 0.207-0.5 0.207h-5.147v5.147c0 0.193-0.067 0.36-0.207 0.5s-0.3 0.207-0.5 0.207h-1.86c-0.193 0-0.36-0.067-0.5-0.207s-0.207-0.3-0.207-0.5v-5.147h-5.147c-0.193 0-0.36-0.067-0.5-0.207s-0.207-0.3-0.207-0.5v-1.867c0-0.193 0.067-0.36 0.207-0.5 0.14-0.133 0.3-0.207 0.5-0.207h5.147v-5.147c0-0.193 0.067-0.36 0.207-0.5s0.3-0.207 0.5-0.207h1.873c0.193 0 0.36 0.067 0.5 0.207 0.14 0.133 0.207 0.3 0.207 0.5v5.147h5.147c0.193 0 0.36 0.067 0.5 0.207s0.207 0.3 0.207 0.5v1.867z"></path>
</symbol>
<symbol id="icon-eclipse" viewBox="0 0 32 32">
<title>icon-eclipse</title>
<path d="M12.387 3.947c0-1.007 0.353-1.86 1.053-2.56s1.553-1.053 2.56-1.053 1.86 0.353 2.56 1.053 1.053 1.553 1.053 2.56-0.353 1.86-1.053 2.56-1.553 1.053-2.56 1.053-1.86-0.353-2.56-1.053-1.053-1.553-1.053-2.56z"></path>
<path d="M16 12.387c-1.007 0-1.86 0.353-2.56 1.053s-1.053 1.553-1.053 2.56 0.353 1.86 1.053 2.56 1.553 1.053 2.56 1.053 1.86-0.353 2.56-1.053 1.053-1.553 1.053-2.56-0.353-1.86-1.053-2.56-1.553-1.053-2.56-1.053z"></path>
<path d="M12.387 28.053c0-1.007 0.353-1.86 1.053-2.56s1.553-1.053 2.56-1.053 1.86 0.353 2.56 1.053 1.053 1.553 1.053 2.56-0.353 1.86-1.053 2.56-1.553 1.053-2.56 1.053-1.86-0.353-2.56-1.053-1.053-1.56-1.053-2.56z"></path>
</symbol>
<symbol id="icon-notification-unread" viewBox="0 0 32 32">
<title>icon-notification-unread</title>
<path d="M7.934 5.572c-1.431 1.515-2.367 3.484-2.753 5.603l-1.377 7.565c-0.284 1.57-0.869 1.896-1.697 2.439-0.417 0.272-0.924 0.568-1.365 1.087s-0.743 1.28-0.743 2.162c0 1.509 1.244 2.753 2.753 2.753h5.863c0.181 2.681 2.427 4.818 5.15 4.818s4.969-2.137 5.15-4.818h5.863c1.509 0 2.753-1.244 2.753-2.753 0-0.881-0.296-1.642-0.743-2.162-0.441-0.519-0.948-0.815-1.365-1.087-0.833-0.549-1.413-0.869-1.697-2.439l-1.377-7.571c-0.386-2.119-1.262-4.148-2.753-5.603-3.484-3.399-8.441-3.399-11.665 0.006zM13.766 5.161c1.811 0 3.23 0.694 4.347 1.841 1.111 1.147 1.896 2.771 2.216 4.54l1.377 7.571c0.392 2.149 1.697 3.206 2.59 3.798 0.447 0.296 0.767 0.513 0.924 0.7 0.163 0.187 0.248 0.338 0.248 0.827 0 0.398-0.29 0.688-0.688 0.688h-22.026c-0.398 0-0.688-0.29-0.688-0.688 0-0.495 0.085-0.64 0.248-0.827s0.477-0.405 0.924-0.7c0.894-0.586 2.198-1.648 2.59-3.798l1.377-7.571c0.32-1.763 1.099-3.393 2.216-4.54s2.536-1.841 4.347-1.841zM10.729 27.181h6.062c-0.175 1.558-1.419 2.753-3.031 2.753s-2.856-1.195-3.031-2.753z"></path>
<path d="M32 4.226c0 2.334-1.892 4.226-4.226 4.226s-4.226-1.892-4.226-4.226c0-2.334 1.892-4.226 4.226-4.226s4.226 1.892 4.226 4.226z"></path>
</symbol>
<symbol id="icon-chevron" viewBox="0 0 32 32">
<title>icon-chevron</title>
<path d="M4.501 6.414l15.335 15.335-3.832 3.832-15.335-15.335 3.832-3.832z"></path>
<path d="M31.336 10.251l-15.335 15.335-3.832-3.832 15.335-15.335 3.832 3.832z"></path>
</symbol>
<symbol id="icon-authorized" viewBox="0 0 32 32">
<title>icon-authorized</title>
<path d="M16 32c-8.82 0-16-7.18-16-16s7.18-16 16-16c8.82 0 16 7.18 16 16s-7.18 16-16 16zM16 2.020c-7.707 0-13.98 6.273-13.98 13.98s6.273 13.98 13.98 13.98c7.707 0 13.98-6.273 13.98-13.98s-6.273-13.98-13.98-13.98z"></path>
<path d="M13.847 23.113l-7.007-7.007c-0.393-0.393-0.393-1.033 0-1.427s1.033-0.393 1.427 0l5.52 5.52 9.593-10.34c0.38-0.407 1.020-0.433 1.427-0.053s0.433 1.020 0.053 1.427l-11.013 11.88z"></path>
</symbol>
<symbol id="icon-calendar" viewBox="0 0 32 32">
<title>icon-calendar</title>
<path d="M27.867 3.273h-2.32v-1.373c0.007-0.68-0.547-1.233-1.227-1.233s-1.233 0.553-1.233 1.233v1.38h-13.667v-1.38c0-0.68-0.553-1.233-1.233-1.233s-1.233 0.553-1.233 1.233v1.38h-2.82c-2.28-0.007-4.133 1.827-4.133 4.107v19.387c0 2.273 1.847 4.133 4.133 4.133h23.733c2.273 0 4.133-1.853 4.133-4.133v-19.393c0-2.273-1.847-4.107-4.133-4.107zM29.533 26.767c0 0.92-0.747 1.667-1.667 1.667h-23.733c-0.92 0-1.667-0.747-1.667-1.667v-13.133h27.067v13.133zM2.467 11.173v-3.787c0-0.92 0.747-1.647 1.667-1.647h2.827v0.92c0 0.68 0.553 1.233 1.233 1.233s1.233-0.553 1.233-1.233v-0.92h13.667v0.92c0 0.68 0.553 1.233 1.233 1.233s1.233-0.553 1.233-1.233v-0.92h2.32c0.92 0 1.667 0.727 1.667 1.647v3.787h-27.080z"></path>
</symbol>
<symbol id="icon-cancelled" viewBox="0 0 32 32">
<title>icon-cancelled</title>
<path d="M27.827 5.233l0.007-0.007-0.407-0.407c-0.087-0.087-0.167-0.167-0.253-0.253l-0.767-0.767-0.033 0.033c-2.793-2.387-6.42-3.833-10.373-3.833-8.82 0-16 7.18-16 16s7.18 16 16 16c8.82 0 16-7.18 16-16 0-4.14-1.58-7.92-4.173-10.767zM16 2.020c3.4 0 6.52 1.22 8.94 3.247l-19.673 19.673c-2.027-2.42-3.247-5.54-3.247-8.94 0-7.707 6.273-13.98 13.98-13.98zM16 29.98c-3.587 0-6.853-1.36-9.333-3.58l19.733-19.733c2.227 2.48 3.58 5.747 3.58 9.333 0 7.707-6.273 13.98-13.98 13.98z"></path>
</symbol>
<symbol id="icon-consent" viewBox="0 0 32 32">
<title>icon-consent</title>
<path d="M30.953 31.887h-29.907c-0.58 0-1.047-0.473-1.047-1.053s0.467-1.047 1.047-1.047h29.9c0.58 0 1.047 0.467 1.047 1.047s-0.46 1.053-1.040 1.053z"></path>
<path d="M28.32 4.033c0-1.073-0.42-2.087-1.18-2.853-0.76-0.76-1.773-1.18-2.847-1.18 0 0 0 0 0 0-1.073 0-2.087 0.42-2.847 1.18l-2.147 2.147c-0.047 0.033-0.093 0.073-0.14 0.113-0.040 0.040-0.080 0.093-0.113 0.14l-15.507 15.507c-0.147 0.147-0.247 0.333-0.287 0.533l-1.053 5.267c-0.067 0.347 0.040 0.7 0.287 0.947 0.2 0.2 0.467 0.307 0.74 0.307 0.067 0 0.14-0.007 0.207-0.020l5.267-1.053c0.2-0.040 0.387-0.14 0.533-0.287l17.9-17.9c0.76-0.76 1.18-1.773 1.187-2.847zM7.973 23.073l-3.413 0.68 0.68-3.413 14.667-14.667 2.727 2.727-14.66 14.673zM25.653 5.393l-1.533 1.533-2.727-2.727 1.533-1.533c0.367-0.367 0.847-0.567 1.367-0.567v0c0.513 0 1 0.2 1.36 0.567 0.367 0.367 0.567 0.853 0.567 1.367s-0.2 0.993-0.567 1.36z"></path>
<path d="M30.513 9.607c-0.407-0.413-1.073-0.413-1.487-0.007l-7.347 7.267c-0.413 0.407-0.413 1.073-0.007 1.487 0.207 0.207 0.473 0.313 0.747 0.313 0.267 0 0.533-0.1 0.74-0.307l7.353-7.267c0.4-0.413 0.407-1.073 0-1.487z"></path>
</symbol>
<symbol id="icon-documents" viewBox="0 0 32 32">
<title>icon-documents</title>
<path d="M7.913 32c-2.527 0-4.58-2.053-4.58-4.58v-22.84c0-2.527 2.053-4.58 4.58-4.58h11.327c0.28 0 0.553 0.113 0.747 0.307l8.54 8.533c0.207 0.22 0.307 0.48 0.307 0.753v17.827c0 2.527-2.053 4.58-4.58 4.58h-16.34zM7.913 2.127c-1.353 0-2.453 1.1-2.453 2.453v22.847c0 1.353 1.1 2.453 2.453 2.453h16.34c1.353 0 2.453-1.1 2.453-2.453v-16.78h-3.953c-2.52 0-4.567-2.047-4.567-4.567v-3.953h-10.273zM20.307 6.080c0 1.347 1.093 2.447 2.447 2.447h2.453l-4.893-4.893v2.447z"></path>
<path d="M9.393 17.227v0c0-0.587 0.473-1.060 1.060-1.060h4.307c0.587 0 1.060 0.473 1.060 1.060v0c0 0.587-0.473 1.060-1.060 1.060h-4.307c-0.58 0.007-1.060-0.467-1.060-1.060z"></path>
<path d="M9.393 22.153v0c0-0.587 0.473-1.060 1.060-1.060h11.16c0.587 0 1.060 0.473 1.060 1.060v0c0 0.587-0.473 1.060-1.060 1.060h-11.153c-0.587 0-1.067-0.473-1.067-1.060z"></path>
</symbol>
<symbol id="icon-help" viewBox="0 0 32 32">
<title>icon-help</title>
<path d="M16 32.007c-4.28 0-8.293-1.667-11.313-4.687s-4.687-7.040-4.687-11.313c0-4.273 1.667-8.293 4.687-11.32 3.027-3.020 7.040-4.687 11.32-4.687 4.273 0 8.293 1.667 11.313 4.687s4.68 7.033 4.68 11.313c0 4.28-1.66 8.3-4.68 11.313-3.027 3.027-7.047 4.693-11.32 4.693v0zM16 2.26c-3.667 0-7.12 1.427-9.713 4.020-2.6 2.593-4.027 6.047-4.027 9.72s1.427 7.12 4.027 9.72c2.593 2.593 6.047 4.020 9.713 4.020 3.673 0 7.127-1.427 9.72-4.027 5.353-5.36 5.353-14.073 0-19.433-2.593-2.587-6.047-4.020-9.72-4.020v0zM15.82 23.593c-0.36 0-0.667-0.113-0.933-0.347-0.26-0.227-0.387-0.533-0.387-0.947 0-0.367 0.127-0.66 0.38-0.913 0.253-0.247 0.56-0.373 0.94-0.373 0.367 0 0.667 0.12 0.913 0.367s0.367 0.547 0.367 0.913c0 0.407-0.127 0.72-0.38 0.947-0.26 0.24-0.553 0.353-0.9 0.353zM15.707 19.587c-0.293 0-0.533-0.093-0.727-0.28s-0.287-0.467-0.287-0.86c0-0.54 0.080-1.007 0.247-1.4 0.167-0.387 0.387-0.74 0.66-1.040 0.28-0.307 0.667-0.673 1.173-1.113 0.433-0.38 0.76-0.673 0.96-0.88 0.213-0.213 0.393-0.453 0.533-0.707 0.153-0.273 0.233-0.573 0.233-0.9 0-0.62-0.233-1.147-0.693-1.567-0.453-0.42-1.040-0.633-1.747-0.633-0.82 0-1.44 0.22-1.847 0.647-0.38 0.407-0.7 1-0.96 1.773-0.267 0.887-0.753 0.987-1.087 0.987-0.313 0-0.573-0.107-0.793-0.333-0.22-0.22-0.32-0.453-0.32-0.707 0-0.6 0.2-1.22 0.587-1.847 0.393-0.627 0.98-1.153 1.733-1.573 0.76-0.413 1.66-0.627 2.687-0.627 0.953 0 1.8 0.173 2.52 0.527 0.713 0.347 1.273 0.82 1.66 1.407 0.387 0.58 0.58 1.227 0.58 1.92 0 0.54-0.107 1.020-0.32 1.413-0.227 0.413-0.493 0.78-0.793 1.073-0.307 0.3-0.88 0.827-1.747 1.6-0.26 0.24-0.447 0.42-0.58 0.58-0.16 0.187-0.273 0.347-0.347 0.493-0.073 0.153-0.133 0.3-0.173 0.447-0.040 0.14-0.093 0.373-0.173 0.713-0.113 0.62-0.413 0.887-0.98 0.887z"></path>
</symbol>
<symbol id="icon-notification" viewBox="0 0 32 32">
<title>icon-notification</title>
<path d="M9.427 2.819c-1.58 1.673-2.613 3.847-3.040 6.187l-1.52 8.353c-0.313 1.733-0.96 2.093-1.873 2.693-0.46 0.3-1.020 0.627-1.507 1.2s-0.82 1.413-0.82 2.387c0 1.667 1.373 3.040 3.040 3.040h6.473c0.2 2.96 2.68 5.32 5.687 5.32s5.487-2.36 5.687-5.32h6.473c1.667 0 3.040-1.373 3.040-3.040 0-0.973-0.327-1.813-0.82-2.387-0.487-0.573-1.047-0.9-1.507-1.2-0.92-0.607-1.56-0.96-1.873-2.693l-1.52-8.36c-0.427-2.34-1.393-4.58-3.040-6.187-3.847-3.753-9.32-3.753-12.88 0.007zM15.867 2.365c2 0 3.567 0.767 4.8 2.033 1.227 1.267 2.093 3.060 2.447 5.013l1.52 8.36c0.433 2.373 1.873 3.54 2.86 4.193 0.493 0.327 0.847 0.567 1.020 0.773 0.18 0.207 0.273 0.373 0.273 0.913 0 0.44-0.32 0.76-0.76 0.76h-24.32c-0.44 0-0.76-0.32-0.76-0.76 0-0.547 0.093-0.707 0.273-0.913s0.527-0.447 1.020-0.773c0.987-0.647 2.427-1.82 2.86-4.193l1.52-8.36c0.353-1.947 1.213-3.747 2.447-5.013s2.8-2.033 4.8-2.033zM12.513 26.679h6.693c-0.193 1.72-1.567 3.040-3.347 3.040s-3.153-1.32-3.347-3.040z"></path>
</symbol>
<symbol id="icon-profile" viewBox="0 0 32 32">
<title>icon-profile</title>
<path d="M27.847 32c-0.693 0-1.253-0.56-1.253-1.253 0-5.813-4.733-10.547-10.547-10.547s-10.54 4.733-10.54 10.547c0 0.693-0.56 1.253-1.253 1.253s-1.253-0.56-1.253-1.253c0-7.193 5.853-13.053 13.053-13.053s13.053 5.853 13.053 13.053c-0.007 0.693-0.567 1.253-1.26 1.253zM16.053 15.78c-4.347 0-7.887-3.54-7.887-7.887s3.533-7.893 7.887-7.893 7.887 3.54 7.887 7.887-3.54 7.893-7.887 7.893zM16.053 2.507c-2.967 0-5.387 2.413-5.387 5.387s2.413 5.387 5.387 5.387 5.387-2.413 5.387-5.387-2.42-5.387-5.387-5.387z"></path>
</symbol>
<symbol id="icon-travel" viewBox="0 0 32 32">
<title>icon-travel</title>
<path d="M23.713 31.999c-0.4 0-0.787-0.227-0.953-0.567l-5.48-10.967-6.567 5.593c0.193 0.653 0.387 1.473 0.36 2.307-0.013 0.433-0.087 1.073-0.527 1.627-0.407 0.507-1.087 0.807-1.82 0.807-0.613 0-1.26-0.213-1.813-0.593-0.033-0.027-5.080-5.073-5.107-5.1-0.393-0.56-0.607-1.207-0.607-1.82 0-0.733 0.3-1.413 0.807-1.82 0.553-0.447 1.193-0.513 1.627-0.527 0.053 0 0.113 0 0.167 0 0.78 0 1.54 0.187 2.14 0.36l5.593-6.567-10.967-5.48c-0.233-0.113-0.42-0.333-0.513-0.6-0.087-0.267-0.073-0.553 0.040-0.787l1.213-2.427c0.173-0.34 0.547-0.567 0.94-0.567 0.067 0 0.133 0.007 0.193 0.020l15.627 3.12c1.853-1.973 5.56-5.547 5.72-5.7 1.413-1.393 2.987-2.207 4.433-2.287 0.040 0 0.087 0 0.127 0h0.193c0.993 0.013 1.88 0.36 2.493 0.973 0.607 0.607 0.947 1.487 0.967 2.48 0.027 1.547-0.787 3.233-2.287 4.747-0.153 0.16-3.733 3.873-5.7 5.72l3.12 15.627c0.093 0.44-0.147 0.927-0.553 1.133l-2.427 1.213c-0.133 0.047-0.287 0.080-0.44 0.080v0zM17.593 17.832c0.407 0 0.773 0.213 0.947 0.547l5.6 11.2 0.793-0.393-3.073-15.4c-0.067-0.34 0.053-0.713 0.307-0.953 1.76-1.633 4.773-4.727 5.987-5.98 0.047-0.047 0.067-0.073 0.067-0.073 1.193-1.2 1.72-2.513 1.713-3.28-0.007-0.44-0.147-0.833-0.367-1.060-0.22-0.22-0.62-0.353-1.053-0.36v0c-0.793 0-2.1 0.533-3.287 1.713 0 0-0.027 0.020-0.067 0.067-1.253 1.213-4.353 4.227-5.98 5.987-0.193 0.207-0.473 0.327-0.76 0.327v0c-0.067 0-0.127-0.007-0.193-0.020l-15.4-3.073-0.393 0.793 11.2 5.6c0.267 0.14 0.46 0.4 0.527 0.72s-0.007 0.633-0.2 0.867l-6.873 8.093c-0.193 0.233-0.493 0.367-0.807 0.367-0.107 0-0.213-0.013-0.307-0.047-0.873-0.287-1.687-0.46-2.18-0.46h-0.067c-0.253 0.007-0.387 0.060-0.413 0.080-0.013 0.007-0.027 0.047-0.027 0.2 0 0.187 0.033 0.32 0.2 0.58 0.28 0.28 4.653 4.653 4.687 4.687 0.24 0.153 0.373 0.187 0.56 0.187 0.153 0 0.193-0.013 0.2-0.020 0.020-0.033 0.073-0.167 0.080-0.42 0.013-0.487-0.153-1.327-0.453-2.247-0.127-0.393 0.007-0.853 0.32-1.113l8.087-6.873c0.16-0.16 0.387-0.24 0.627-0.24z"></path>
</symbol>
<symbol id="icon-warning" viewBox="0 0 32 32">
<title>icon-warning</title>
<path d="M16 19.74c-0.56 0-1.013-0.453-1.013-1.013v-10.507c0-0.56 0.453-1.013 1.013-1.013s1.013 0.453 1.013 1.013v10.507c0 0.56-0.453 1.013-1.013 1.013z"></path>
<path d="M17.213 23.573c0 0.67-0.543 1.213-1.213 1.213s-1.213-0.543-1.213-1.213c0-0.67 0.543-1.213 1.213-1.213s1.213 0.543 1.213 1.213z"></path>
<path d="M16 32c-8.82 0-16-7.18-16-16s7.18-16 16-16c8.82 0 16 7.18 16 16s-7.18 16-16 16zM16 2.020c-7.707 0-13.98 6.273-13.98 13.98s6.273 13.98 13.98 13.98c7.707 0 13.98-6.273 13.98-13.98s-6.273-13.98-13.98-13.98z"></path>
</symbol>
</defs>
</svg>
