<!-- Generated by IcoMoon.io -->
<svg version="1.1" xmlns="http://www.w3.org/2000/svg" width="32" height="32" viewBox="0 0 32 32">
<title>icon-notification-unread</title>
<path d="M7.934 5.572c-1.431 1.515-2.367 3.484-2.753 5.603l-1.377 7.565c-0.284 1.57-0.869 1.896-1.697 2.439-0.417 0.272-0.924 0.568-1.365 1.087s-0.743 1.28-0.743 2.162c0 1.509 1.244 2.753 2.753 2.753h5.863c0.181 2.681 2.427 4.818 5.15 4.818s4.969-2.137 5.15-4.818h5.863c1.509 0 2.753-1.244 2.753-2.753 0-0.881-0.296-1.642-0.743-2.162-0.441-0.519-0.948-0.815-1.365-1.087-0.833-0.549-1.413-0.869-1.697-2.439l-1.377-7.571c-0.386-2.119-1.262-4.148-2.753-5.603-3.484-3.399-8.441-3.399-11.665 0.006zM13.766 5.161c1.811 0 3.23 0.694 4.347 1.841 1.111 1.147 1.896 2.771 2.216 4.54l1.377 7.571c0.392 2.149 1.697 3.206 2.59 3.798 0.447 0.296 0.767 0.513 0.924 0.7 0.163 0.187 0.248 0.338 0.248 0.827 0 0.398-0.29 0.688-0.688 0.688h-22.026c-0.398 0-0.688-0.29-0.688-0.688 0-0.495 0.085-0.64 0.248-0.827s0.477-0.405 0.924-0.7c0.894-0.586 2.198-1.648 2.59-3.798l1.377-7.571c0.32-1.763 1.099-3.393 2.216-4.54s2.536-1.841 4.347-1.841zM10.729 27.181h6.062c-0.175 1.558-1.419 2.753-3.031 2.753s-2.856-1.195-3.031-2.753z"></path>
<path d="M32 4.226c0 2.334-1.892 4.226-4.226 4.226s-4.226-1.892-4.226-4.226c0-2.334 1.892-4.226 4.226-4.226s4.226 1.892 4.226 4.226z"></path>
</svg>
