<!-- Generated by IcoMoon.io -->
<svg version="1.1" xmlns="http://www.w3.org/2000/svg" width="32" height="32" viewBox="0 0 32 32">
<title>icon-authorized</title>
<path d="M16 32c-8.82 0-16-7.18-16-16s7.18-16 16-16c8.82 0 16 7.18 16 16s-7.18 16-16 16zM16 2.020c-7.707 0-13.98 6.273-13.98 13.98s6.273 13.98 13.98 13.98c7.707 0 13.98-6.273 13.98-13.98s-6.273-13.98-13.98-13.98z"></path>
<path d="M13.847 23.113l-7.007-7.007c-0.393-0.393-0.393-1.033 0-1.427s1.033-0.393 1.427 0l5.52 5.52 9.593-10.34c0.38-0.407 1.020-0.433 1.427-0.053s0.433 1.020 0.053 1.427l-11.013 11.88z"></path>
</svg>
