<!-- Generated by IcoMoon.io -->
<svg version="1.1" xmlns="http://www.w3.org/2000/svg" width="32" height="32" viewBox="0 0 32 32">
<title>icon-notification</title>
<path d="M9.427 2.819c-1.58 1.673-2.613 3.847-3.040 6.187l-1.52 8.353c-0.313 1.733-0.96 2.093-1.873 2.693-0.46 0.3-1.020 0.627-1.507 1.2s-0.82 1.413-0.82 2.387c0 1.667 1.373 3.040 3.040 3.040h6.473c0.2 2.96 2.68 5.32 5.687 5.32s5.487-2.36 5.687-5.32h6.473c1.667 0 3.040-1.373 3.040-3.040 0-0.973-0.327-1.813-0.82-2.387-0.487-0.573-1.047-0.9-1.507-1.2-0.92-0.607-1.56-0.96-1.873-2.693l-1.52-8.36c-0.427-2.34-1.393-4.58-3.040-6.187-3.847-3.753-9.32-3.753-12.88 0.007zM15.867 2.365c2 0 3.567 0.767 4.8 2.033 1.227 1.267 2.093 3.060 2.447 5.013l1.52 8.36c0.433 2.373 1.873 3.54 2.86 4.193 0.493 0.327 0.847 0.567 1.020 0.773 0.18 0.207 0.273 0.373 0.273 0.913 0 0.44-0.32 0.76-0.76 0.76h-24.32c-0.44 0-0.76-0.32-0.76-0.76 0-0.547 0.093-0.707 0.273-0.913s0.527-0.447 1.020-0.773c0.987-0.647 2.427-1.82 2.86-4.193l1.52-8.36c0.353-1.947 1.213-3.747 2.447-5.013s2.8-2.033 4.8-2.033zM12.513 26.679h6.693c-0.193 1.72-1.567 3.040-3.347 3.040s-3.153-1.32-3.347-3.040z"></path>
</svg>
