<!-- Generated by IcoMoon.io -->
<svg version="1.1" xmlns="http://www.w3.org/2000/svg" width="32" height="32" viewBox="0 0 32 32">
<title>icon-calendar</title>
<path d="M27.867 3.273h-2.32v-1.373c0.007-0.68-0.547-1.233-1.227-1.233s-1.233 0.553-1.233 1.233v1.38h-13.667v-1.38c0-0.68-0.553-1.233-1.233-1.233s-1.233 0.553-1.233 1.233v1.38h-2.82c-2.28-0.007-4.133 1.827-4.133 4.107v19.387c0 2.273 1.847 4.133 4.133 4.133h23.733c2.273 0 4.133-1.853 4.133-4.133v-19.393c0-2.273-1.847-4.107-4.133-4.107zM29.533 26.767c0 0.92-0.747 1.667-1.667 1.667h-23.733c-0.92 0-1.667-0.747-1.667-1.667v-13.133h27.067v13.133zM2.467 11.173v-3.787c0-0.92 0.747-1.647 1.667-1.647h2.827v0.92c0 0.68 0.553 1.233 1.233 1.233s1.233-0.553 1.233-1.233v-0.92h13.667v0.92c0 0.68 0.553 1.233 1.233 1.233s1.233-0.553 1.233-1.233v-0.92h2.32c0.92 0 1.667 0.727 1.667 1.647v3.787h-27.080z"></path>
</svg>
