<!-- Generated by IcoMoon.io -->
<svg version="1.1" xmlns="http://www.w3.org/2000/svg" width="32" height="32" viewBox="0 0 32 32">
<title>icon-consent</title>
<path d="M30.953 31.887h-29.907c-0.58 0-1.047-0.473-1.047-1.053s0.467-1.047 1.047-1.047h29.9c0.58 0 1.047 0.467 1.047 1.047s-0.46 1.053-1.040 1.053z"></path>
<path d="M28.32 4.033c0-1.073-0.42-2.087-1.18-2.853-0.76-0.76-1.773-1.18-2.847-1.18 0 0 0 0 0 0-1.073 0-2.087 0.42-2.847 1.18l-2.147 2.147c-0.047 0.033-0.093 0.073-0.14 0.113-0.040 0.040-0.080 0.093-0.113 0.14l-15.507 15.507c-0.147 0.147-0.247 0.333-0.287 0.533l-1.053 5.267c-0.067 0.347 0.040 0.7 0.287 0.947 0.2 0.2 0.467 0.307 0.74 0.307 0.067 0 0.14-0.007 0.207-0.020l5.267-1.053c0.2-0.040 0.387-0.14 0.533-0.287l17.9-17.9c0.76-0.76 1.18-1.773 1.187-2.847zM7.973 23.073l-3.413 0.68 0.68-3.413 14.667-14.667 2.727 2.727-14.66 14.673zM25.653 5.393l-1.533 1.533-2.727-2.727 1.533-1.533c0.367-0.367 0.847-0.567 1.367-0.567v0c0.513 0 1 0.2 1.36 0.567 0.367 0.367 0.567 0.853 0.567 1.367s-0.2 0.993-0.567 1.36z"></path>
<path d="M30.513 9.607c-0.407-0.413-1.073-0.413-1.487-0.007l-7.347 7.267c-0.413 0.407-0.413 1.073-0.007 1.487 0.207 0.207 0.473 0.313 0.747 0.313 0.267 0 0.533-0.1 0.74-0.307l7.353-7.267c0.4-0.413 0.407-1.073 0-1.487z"></path>
</svg>
