<!-- Generated by IcoMoon.io -->
<svg version="1.1" xmlns="http://www.w3.org/2000/svg" width="32" height="32" viewBox="0 0 32 32">
<title>icon-warning</title>
<path d="M16 19.74c-0.56 0-1.013-0.453-1.013-1.013v-10.507c0-0.56 0.453-1.013 1.013-1.013s1.013 0.453 1.013 1.013v10.507c0 0.56-0.453 1.013-1.013 1.013z"></path>
<path d="M17.213 23.573c0 0.67-0.543 1.213-1.213 1.213s-1.213-0.543-1.213-1.213c0-0.67 0.543-1.213 1.213-1.213s1.213 0.543 1.213 1.213z"></path>
<path d="M16 32c-8.82 0-16-7.18-16-16s7.18-16 16-16c8.82 0 16 7.18 16 16s-7.18 16-16 16zM16 2.020c-7.707 0-13.98 6.273-13.98 13.98s6.273 13.98 13.98 13.98c7.707 0 13.98-6.273 13.98-13.98s-6.273-13.98-13.98-13.98z"></path>
</svg>
