<!-- Generated by IcoMoon.io -->
<svg version="1.1" xmlns="http://www.w3.org/2000/svg" width="32" height="32" viewBox="0 0 32 32">
<title>icon-profile</title>
<path d="M27.847 32c-0.693 0-1.253-0.56-1.253-1.253 0-5.813-4.733-10.547-10.547-10.547s-10.54 4.733-10.54 10.547c0 0.693-0.56 1.253-1.253 1.253s-1.253-0.56-1.253-1.253c0-7.193 5.853-13.053 13.053-13.053s13.053 5.853 13.053 13.053c-0.007 0.693-0.567 1.253-1.26 1.253zM16.053 15.78c-4.347 0-7.887-3.54-7.887-7.887s3.533-7.893 7.887-7.893 7.887 3.54 7.887 7.887-3.54 7.893-7.887 7.893zM16.053 2.507c-2.967 0-5.387 2.413-5.387 5.387s2.413 5.387 5.387 5.387 5.387-2.413 5.387-5.387-2.42-5.387-5.387-5.387z"></path>
</svg>
