<!-- Generated by IcoMoon.io -->
<svg version="1.1" xmlns="http://www.w3.org/2000/svg" width="32" height="32" viewBox="0 0 32 32">
<title>icon-eclipse</title>
<path d="M12.387 3.947c0-1.007 0.353-1.86 1.053-2.56s1.553-1.053 2.56-1.053 1.86 0.353 2.56 1.053 1.053 1.553 1.053 2.56-0.353 1.86-1.053 2.56-1.553 1.053-2.56 1.053-1.86-0.353-2.56-1.053-1.053-1.553-1.053-2.56z"></path>
<path d="M16 12.387c-1.007 0-1.86 0.353-2.56 1.053s-1.053 1.553-1.053 2.56 0.353 1.86 1.053 2.56 1.553 1.053 2.56 1.053 1.86-0.353 2.56-1.053 1.053-1.553 1.053-2.56-0.353-1.86-1.053-2.56-1.553-1.053-2.56-1.053z"></path>
<path d="M12.387 28.053c0-1.007 0.353-1.86 1.053-2.56s1.553-1.053 2.56-1.053 1.86 0.353 2.56 1.053 1.053 1.553 1.053 2.56-0.353 1.86-1.053 2.56-1.553 1.053-2.56 1.053-1.86-0.353-2.56-1.053-1.053-1.56-1.053-2.56z"></path>
</svg>
