<!-- Generated by IcoMoon.io -->
<svg version="1.1" xmlns="http://www.w3.org/2000/svg" width="32" height="32" viewBox="0 0 32 32">
<title>icon-help</title>
<path d="M16 32.007c-4.28 0-8.293-1.667-11.313-4.687s-4.687-7.040-4.687-11.313c0-4.273 1.667-8.293 4.687-11.32 3.027-3.020 7.040-4.687 11.32-4.687 4.273 0 8.293 1.667 11.313 4.687s4.68 7.033 4.68 11.313c0 4.28-1.66 8.3-4.68 11.313-3.027 3.027-7.047 4.693-11.32 4.693v0zM16 2.26c-3.667 0-7.12 1.427-9.713 4.020-2.6 2.593-4.027 6.047-4.027 9.72s1.427 7.12 4.027 9.72c2.593 2.593 6.047 4.020 9.713 4.020 3.673 0 7.127-1.427 9.72-4.027 5.353-5.36 5.353-14.073 0-19.433-2.593-2.587-6.047-4.020-9.72-4.020v0zM15.82 23.593c-0.36 0-0.667-0.113-0.933-0.347-0.26-0.227-0.387-0.533-0.387-0.947 0-0.367 0.127-0.66 0.38-0.913 0.253-0.247 0.56-0.373 0.94-0.373 0.367 0 0.667 0.12 0.913 0.367s0.367 0.547 0.367 0.913c0 0.407-0.127 0.72-0.38 0.947-0.26 0.24-0.553 0.353-0.9 0.353zM15.707 19.587c-0.293 0-0.533-0.093-0.727-0.28s-0.287-0.467-0.287-0.86c0-0.54 0.080-1.007 0.247-1.4 0.167-0.387 0.387-0.74 0.66-1.040 0.28-0.307 0.667-0.673 1.173-1.113 0.433-0.38 0.76-0.673 0.96-0.88 0.213-0.213 0.393-0.453 0.533-0.707 0.153-0.273 0.233-0.573 0.233-0.9 0-0.62-0.233-1.147-0.693-1.567-0.453-0.42-1.040-0.633-1.747-0.633-0.82 0-1.44 0.22-1.847 0.647-0.38 0.407-0.7 1-0.96 1.773-0.267 0.887-0.753 0.987-1.087 0.987-0.313 0-0.573-0.107-0.793-0.333-0.22-0.22-0.32-0.453-0.32-0.707 0-0.6 0.2-1.22 0.587-1.847 0.393-0.627 0.98-1.153 1.733-1.573 0.76-0.413 1.66-0.627 2.687-0.627 0.953 0 1.8 0.173 2.52 0.527 0.713 0.347 1.273 0.82 1.66 1.407 0.387 0.58 0.58 1.227 0.58 1.92 0 0.54-0.107 1.020-0.32 1.413-0.227 0.413-0.493 0.78-0.793 1.073-0.307 0.3-0.88 0.827-1.747 1.6-0.26 0.24-0.447 0.42-0.58 0.58-0.16 0.187-0.273 0.347-0.347 0.493-0.073 0.153-0.133 0.3-0.173 0.447-0.040 0.14-0.093 0.373-0.173 0.713-0.113 0.62-0.413 0.887-0.98 0.887z"></path>
</svg>
