<!-- Generated by IcoMoon.io -->
<svg version="1.1" xmlns="http://www.w3.org/2000/svg" width="32" height="32" viewBox="0 0 32 32">
<title>icon-plus</title>
<path d="M16 0.387c2.813 0 5.413 0.7 7.807 2.107s4.293 3.307 5.7 5.7c1.407 2.393 2.107 4.993 2.107 7.807s-0.707 5.413-2.107 7.807c-1.407 2.393-3.307 4.293-5.7 5.7s-4.993 2.107-7.807 2.107c-2.813 0-5.413-0.7-7.807-2.107s-4.293-3.307-5.693-5.7c-1.407-2.393-2.113-4.993-2.113-7.807s0.7-5.413 2.107-7.807c1.407-2.393 3.307-4.293 5.7-5.693 2.393-1.407 4.993-2.113 7.807-2.113zM16 3.407c-2.267 0-4.367 0.567-6.293 1.7-1.933 1.133-3.46 2.667-4.593 4.593-1.133 1.933-1.7 4.027-1.7 6.293s0.567 4.367 1.7 6.293c1.133 1.933 2.667 3.46 4.593 4.593 1.933 1.133 4.027 1.7 6.293 1.7s4.367-0.567 6.293-1.7c1.933-1.133 3.46-2.667 4.593-4.593 1.133-1.933 1.7-4.027 1.7-6.293s-0.567-4.367-1.7-6.293c-1.133-1.933-2.667-3.46-4.593-4.593s-4.027-1.7-6.293-1.7z"></path>
<path d="M23.487 16.933c0 0.193-0.067 0.36-0.207 0.5s-0.3 0.207-0.5 0.207h-5.147v5.147c0 0.193-0.067 0.36-0.207 0.5s-0.3 0.207-0.5 0.207h-1.86c-0.193 0-0.36-0.067-0.5-0.207s-0.207-0.3-0.207-0.5v-5.147h-5.147c-0.193 0-0.36-0.067-0.5-0.207s-0.207-0.3-0.207-0.5v-1.867c0-0.193 0.067-0.36 0.207-0.5 0.14-0.133 0.3-0.207 0.5-0.207h5.147v-5.147c0-0.193 0.067-0.36 0.207-0.5s0.3-0.207 0.5-0.207h1.873c0.193 0 0.36 0.067 0.5 0.207 0.14 0.133 0.207 0.3 0.207 0.5v5.147h5.147c0.193 0 0.36 0.067 0.5 0.207s0.207 0.3 0.207 0.5v1.867z"></path>
</svg>
