<!-- Generated by IcoMoon.io -->
<svg version="1.1" xmlns="http://www.w3.org/2000/svg" width="32" height="32" viewBox="0 0 32 32">
<title>icon-documents</title>
<path d="M7.913 32c-2.527 0-4.58-2.053-4.58-4.58v-22.84c0-2.527 2.053-4.58 4.58-4.58h11.327c0.28 0 0.553 0.113 0.747 0.307l8.54 8.533c0.207 0.22 0.307 0.48 0.307 0.753v17.827c0 2.527-2.053 4.58-4.58 4.58h-16.34zM7.913 2.127c-1.353 0-2.453 1.1-2.453 2.453v22.847c0 1.353 1.1 2.453 2.453 2.453h16.34c1.353 0 2.453-1.1 2.453-2.453v-16.78h-3.953c-2.52 0-4.567-2.047-4.567-4.567v-3.953h-10.273zM20.307 6.080c0 1.347 1.093 2.447 2.447 2.447h2.453l-4.893-4.893v2.447z"></path>
<path d="M9.393 17.227v0c0-0.587 0.473-1.060 1.060-1.060h4.307c0.587 0 1.060 0.473 1.060 1.060v0c0 0.587-0.473 1.060-1.060 1.060h-4.307c-0.58 0.007-1.060-0.467-1.060-1.060z"></path>
<path d="M9.393 22.153v0c0-0.587 0.473-1.060 1.060-1.060h11.16c0.587 0 1.060 0.473 1.060 1.060v0c0 0.587-0.473 1.060-1.060 1.060h-11.153c-0.587 0-1.067-0.473-1.067-1.060z"></path>
</svg>
