<!-- Generated by IcoMoon.io -->
<svg version="1.1" xmlns="http://www.w3.org/2000/svg" width="32" height="32" viewBox="0 0 32 32">
<title>icon-travel</title>
<path d="M23.713 31.999c-0.4 0-0.787-0.227-0.953-0.567l-5.48-10.967-6.567 5.593c0.193 0.653 0.387 1.473 0.36 2.307-0.013 0.433-0.087 1.073-0.527 1.627-0.407 0.507-1.087 0.807-1.82 0.807-0.613 0-1.26-0.213-1.813-0.593-0.033-0.027-5.080-5.073-5.107-5.1-0.393-0.56-0.607-1.207-0.607-1.82 0-0.733 0.3-1.413 0.807-1.82 0.553-0.447 1.193-0.513 1.627-0.527 0.053 0 0.113 0 0.167 0 0.78 0 1.54 0.187 2.14 0.36l5.593-6.567-10.967-5.48c-0.233-0.113-0.42-0.333-0.513-0.6-0.087-0.267-0.073-0.553 0.040-0.787l1.213-2.427c0.173-0.34 0.547-0.567 0.94-0.567 0.067 0 0.133 0.007 0.193 0.020l15.627 3.12c1.853-1.973 5.56-5.547 5.72-5.7 1.413-1.393 2.987-2.207 4.433-2.287 0.040 0 0.087 0 0.127 0h0.193c0.993 0.013 1.88 0.36 2.493 0.973 0.607 0.607 0.947 1.487 0.967 2.48 0.027 1.547-0.787 3.233-2.287 4.747-0.153 0.16-3.733 3.873-5.7 5.72l3.12 15.627c0.093 0.44-0.147 0.927-0.553 1.133l-2.427 1.213c-0.133 0.047-0.287 0.080-0.44 0.080v0zM17.593 17.832c0.407 0 0.773 0.213 0.947 0.547l5.6 11.2 0.793-0.393-3.073-15.4c-0.067-0.34 0.053-0.713 0.307-0.953 1.76-1.633 4.773-4.727 5.987-5.98 0.047-0.047 0.067-0.073 0.067-0.073 1.193-1.2 1.72-2.513 1.713-3.28-0.007-0.44-0.147-0.833-0.367-1.060-0.22-0.22-0.62-0.353-1.053-0.36v0c-0.793 0-2.1 0.533-3.287 1.713 0 0-0.027 0.020-0.067 0.067-1.253 1.213-4.353 4.227-5.98 5.987-0.193 0.207-0.473 0.327-0.76 0.327v0c-0.067 0-0.127-0.007-0.193-0.020l-15.4-3.073-0.393 0.793 11.2 5.6c0.267 0.14 0.46 0.4 0.527 0.72s-0.007 0.633-0.2 0.867l-6.873 8.093c-0.193 0.233-0.493 0.367-0.807 0.367-0.107 0-0.213-0.013-0.307-0.047-0.873-0.287-1.687-0.46-2.18-0.46h-0.067c-0.253 0.007-0.387 0.060-0.413 0.080-0.013 0.007-0.027 0.047-0.027 0.2 0 0.187 0.033 0.32 0.2 0.58 0.28 0.28 4.653 4.653 4.687 4.687 0.24 0.153 0.373 0.187 0.56 0.187 0.153 0 0.193-0.013 0.2-0.020 0.020-0.033 0.073-0.167 0.080-0.42 0.013-0.487-0.153-1.327-0.453-2.247-0.127-0.393 0.007-0.853 0.32-1.113l8.087-6.873c0.16-0.16 0.387-0.24 0.627-0.24z"></path>
</svg>
