<!-- Generated by IcoMoon.io -->
<svg version="1.1" xmlns="http://www.w3.org/2000/svg" width="32" height="32" viewBox="0 0 32 32">
<title>icon-cancelled</title>
<path d="M27.827 5.233l0.007-0.007-0.407-0.407c-0.087-0.087-0.167-0.167-0.253-0.253l-0.767-0.767-0.033 0.033c-2.793-2.387-6.42-3.833-10.373-3.833-8.82 0-16 7.18-16 16s7.18 16 16 16c8.82 0 16-7.18 16-16 0-4.14-1.58-7.92-4.173-10.767zM16 2.020c3.4 0 6.52 1.22 8.94 3.247l-19.673 19.673c-2.027-2.42-3.247-5.54-3.247-8.94 0-7.707 6.273-13.98 13.98-13.98zM16 29.98c-3.587 0-6.853-1.36-9.333-3.58l19.733-19.733c2.227 2.48 3.58 5.747 3.58 9.333 0 7.707-6.273 13.98-13.98 13.98z"></path>
</svg>
